<svg viewBox="0 0 32 32" fill="none" xmlns="http://www.w3.org/2000/svg">
<path d="M14.1673 10.4987H17.834C19.6673 10.4987 19.6673 9.58203 19.6673 8.66536C19.6673 6.83203 18.7507 6.83203 17.834 6.83203H14.1673C13.2507 6.83203 12.334 6.83203 12.334 8.66536C12.334 10.4987 13.2507 10.4987 14.1673 10.4987Z" stroke="#465C8D" stroke-width="1.5" stroke-miterlimit="10" stroke-linecap="round" stroke-linejoin="round"/>
<path d="M14.1673 10.4987H17.834C19.6673 10.4987 19.6673 9.58203 19.6673 8.66536C19.6673 6.83203 18.7507 6.83203 17.834 6.83203H14.1673C13.2507 6.83203 12.334 6.83203 12.334 8.66536C12.334 10.4987 13.2507 10.4987 14.1673 10.4987Z" stroke="#465C8D" stroke-width="1.5" stroke-miterlimit="10" stroke-linecap="round" stroke-linejoin="round"/>
<path d="M19.6667 8.68359C22.7192 8.84859 24.25 9.97609 24.25 14.1653V19.6653C24.25 23.3319 23.3333 25.1653 18.75 25.1653H13.25C8.66667 25.1653 7.75 23.3319 7.75 19.6653V14.1653C7.75 9.98526 9.28083 8.84859 12.3333 8.68359" stroke="#465C8D" stroke-width="1.5" stroke-miterlimit="10" stroke-linecap="round" stroke-linejoin="round"/>
</svg>
