<svg width="24" height="24" viewBox="0 0 24 24" fill="none" xmlns="http://www.w3.org/2000/svg">
<rect width="24" height="24" rx="8" fill="url(#paint0_linear_2942_1504)" fill-opacity="0.2"/>
<path d="M13.6667 17.0007H10.3333M13.6667 17.0007C13.6667 16.525 13.6667 16.2871 13.6921 16.1293C13.7739 15.6204 13.7883 15.5883 14.1128 15.1878C14.2134 15.0636 14.587 14.7291 15.3342 14.0601C16.3566 13.1446 17 11.8144 17 10.334C17 7.57256 14.7614 5.33398 12 5.33398C9.23858 5.33398 7 7.57256 7 10.334C7 11.8144 7.6434 13.1446 8.66584 14.0601C9.41297 14.7291 9.78658 15.0636 9.88721 15.1878C10.2117 15.5883 10.2261 15.6204 10.3079 16.1293C10.3333 16.2871 10.3333 16.525 10.3333 17.0007M13.6667 17.0007C13.6667 17.6237 13.6667 17.9353 13.5327 18.1673C13.4449 18.3193 13.3187 18.4456 13.1667 18.5333C12.9346 18.6673 12.6231 18.6673 12 18.6673C11.3769 18.6673 11.0654 18.6673 10.8333 18.5333C10.6813 18.4456 10.5551 18.3193 10.4673 18.1673C10.3333 17.9353 10.3333 17.6237 10.3333 17.0007" stroke="#BE44D2"/>
<path d="M12 15.3333V14" stroke="#BE44D2" stroke-linecap="round"/>
<path d="M13.1537 13.334C12.9231 13.7325 12.4922 14.0007 11.9987 14.0007C11.5052 14.0007 11.0743 13.7325 10.8438 13.334" stroke="#BE44D2" stroke-linecap="round"/>
<defs>
<linearGradient id="paint0_linear_2942_1504" x1="12" y1="0" x2="12" y2="24" gradientUnits="userSpaceOnUse">
<stop stop-color="#9C31EA"/>
<stop offset="1" stop-color="#FF03B1"/>
</linearGradient>
</defs>
</svg>
