<svg viewBox="0 0 20 20" fill="none" xmlns="http://www.w3.org/2000/svg">
<path d="M2.24243 6.08711C2.10646 5.76984 1.73904 5.62288 1.42177 5.75885C1.1045 5.89482 0.957531 6.26224 1.0935 6.57951L2.24243 6.08711ZM12.9906 11.6072L12.7617 11.0257H12.7617L12.9906 11.6072ZM7.53584 11.9481C7.7241 11.6588 7.64217 11.2716 7.35284 11.0834C7.06352 10.8951 6.67637 10.977 6.48811 11.2664L7.53584 11.9481ZM5.31077 13.0758C5.12251 13.3651 5.20445 13.7523 5.49377 13.9405C5.78309 14.1288 6.17025 14.0468 6.3585 13.7575L5.31077 13.0758ZM18.9091 6.57951C19.0451 6.26224 18.8981 5.89482 18.5808 5.75885C18.2636 5.62288 17.8961 5.76984 17.7602 6.08711L18.9091 6.57951ZM15.8346 9.77401L15.4069 9.3183V9.3183L15.8346 9.77401ZM16.6427 11.466C16.8868 11.71 17.2825 11.71 17.5266 11.466C17.7707 11.2219 17.7707 10.8261 17.5266 10.5821L16.6427 11.466ZM9.3763 14.25C9.3763 14.5952 9.65612 14.875 10.0013 14.875C10.3465 14.875 10.6263 14.5952 10.6263 14.25H9.3763ZM13.6441 13.7575C13.8324 14.0468 14.2195 14.1288 14.5088 13.9405C14.7982 13.7523 14.8801 13.3651 14.6918 13.0758L13.6441 13.7575ZM4.60991 10.216C4.85399 9.97187 4.85399 9.57615 4.60991 9.33207C4.36583 9.08799 3.9701 9.08799 3.72603 9.33207L4.60991 10.216ZM2.47603 10.5821C2.23195 10.8261 2.23195 11.2219 2.47603 11.466C2.7201 11.71 3.11583 11.71 3.35991 11.466L2.47603 10.5821ZM10.0013 11.5416C7.31473 11.5416 5.38574 10.2038 4.10513 8.8247C3.46501 8.13534 2.99568 7.44401 2.6868 6.92509C2.53271 6.66623 2.41953 6.45191 2.3458 6.30446C2.30896 6.23078 2.28204 6.17394 2.26486 6.13674C2.25628 6.11815 2.25013 6.10448 2.2464 6.09609C2.24453 6.09189 2.24327 6.08902 2.24261 6.08751C2.24228 6.08675 2.2421 6.08634 2.24207 6.08627C2.24206 6.08624 2.24208 6.08629 2.24214 6.08643C2.24217 6.0865 2.24224 6.08667 2.24226 6.08671C2.24234 6.0869 2.24243 6.08711 1.66797 6.33331C1.0935 6.57951 1.09361 6.57977 1.09374 6.58005C1.09379 6.58018 1.09392 6.58048 1.09403 6.58073C1.09424 6.58122 1.09449 6.58181 1.09478 6.58248C1.09536 6.58383 1.0961 6.58553 1.097 6.58758C1.09878 6.59167 1.1012 6.59716 1.10424 6.60401C1.11032 6.61769 1.11893 6.63677 1.13007 6.66091C1.15236 6.70916 1.18485 6.77765 1.22777 6.86347C1.31355 7.03503 1.44125 7.27644 1.61268 7.56445C1.95484 8.13928 2.47509 8.90629 3.18914 9.67526C4.61686 11.2128 6.85454 12.7916 10.0013 12.7916V11.5416ZM12.7617 11.0257C11.9531 11.3439 11.0361 11.5416 10.0013 11.5416V12.7916C11.1998 12.7916 12.2718 12.5618 13.2195 12.1888L12.7617 11.0257ZM6.48811 11.2664L5.31077 13.0758L6.3585 13.7575L7.53584 11.9481L6.48811 11.2664ZM18.3346 6.33331C17.7602 6.08711 17.7602 6.08699 17.7603 6.08687C17.7603 6.08684 17.7603 6.08673 17.7604 6.08667C17.7604 6.08654 17.7605 6.08645 17.7605 6.08638C17.7605 6.08625 17.7606 6.08622 17.7605 6.08631C17.7604 6.08648 17.7602 6.08708 17.7597 6.08811C17.7588 6.09017 17.7572 6.09394 17.7548 6.09935C17.7499 6.11017 17.7421 6.12756 17.7311 6.15102C17.7092 6.19795 17.6751 6.26911 17.6285 6.36054C17.5352 6.54354 17.3922 6.8069 17.1975 7.11932C16.807 7.74594 16.2149 8.55995 15.4069 9.3183L16.2624 10.2297C17.1699 9.37788 17.8277 8.47154 18.2584 7.78037C18.4743 7.43388 18.6346 7.13898 18.742 6.92844C18.7957 6.8231 18.8363 6.73867 18.864 6.67921C18.8779 6.64947 18.8886 6.62596 18.8961 6.60918C18.8998 6.60079 18.9028 6.59408 18.9049 6.58912C18.906 6.58663 18.9069 6.58459 18.9076 6.58298C18.908 6.58218 18.9083 6.58149 18.9085 6.58091C18.9086 6.58062 18.9087 6.58036 18.9088 6.58013C18.9089 6.58001 18.909 6.57986 18.909 6.5798C18.909 6.57965 18.9091 6.57951 18.3346 6.33331ZM15.4069 9.3183C14.6911 9.99019 13.8129 10.6119 12.7617 11.0257L13.2195 12.1888C14.4475 11.7054 15.4568 10.9858 16.2624 10.2297L15.4069 9.3183ZM15.3927 10.216L16.6427 11.466L17.5266 10.5821L16.2766 9.33207L15.3927 10.216ZM9.3763 12.1666V14.25H10.6263V12.1666H9.3763ZM12.4668 11.9481L13.6441 13.7575L14.6918 13.0758L13.5145 11.2664L12.4668 11.9481ZM3.72603 9.33207L2.47603 10.5821L3.35991 11.466L4.60991 10.216L3.72603 9.33207Z" fill="#011F63"/>
</svg>
