<svg viewBox="0 0 32 32" fill="none" xmlns="http://www.w3.org/2000/svg">
<path d="M14 26C18.4183 26 22 22.4183 22 18C22 13.5817 18.4183 10 14 10C9.58172 10 6 13.5817 6 18C6 19.2355 6.28008 20.4056 6.7802 21.4502C6.95209 21.8093 7.01245 22.2161 6.90955 22.6006L6.58151 23.8267C6.32295 24.793 7.20701 25.677 8.17335 25.4185L9.39939 25.0904C9.78393 24.9876 10.1907 25.0479 10.5498 25.2198C11.5944 25.7199 12.7645 26 14 26Z" stroke="#465C8D" stroke-width="1.5"/>
<path d="M22 18.5018C22.0665 18.4741 22.1324 18.4453 22.1977 18.4155C22.5598 18.2501 22.9661 18.1882 23.3506 18.2911L23.8267 18.4185C24.793 18.677 25.677 17.793 25.4185 16.8267L25.2911 16.3506C25.1882 15.9661 25.2501 15.5598 25.4155 15.1977C25.7908 14.376 26 13.4624 26 12.5C26 8.91015 23.0899 6 19.5 6C16.7977 6 14.4806 7.64899 13.5 9.9956" stroke="#465C8D" stroke-width="1.5"/>
<path d="M10.5178 18H10.5268M14.0085 18H14.0175M17.4995 18H17.5085" stroke="#465C8D" stroke-width="2" stroke-linecap="round" stroke-linejoin="round"/>
</svg>
