<svg viewBox="0 0 103 40" fill="none" xmlns="http://www.w3.org/2000/svg">
<path d="M0 40H5.53309C5 38 4.8172 32.2675 6 24C7.61219 12.7311 11.2586 6.33151 15.4572 5.9608C18.7378 5.67115 19.6898 12.7066 15.0191 21.0573L16.5595 23.7974C21.4481 18.9453 29.3843 17.5195 30.5082 21.8299C32.095 27.9148 21.0079 33.9474 15.0191 33.9474L16.5595 39.1106C35.1938 33.9474 38.5 22.0573 34 15.9728C31.3618 12.4057 23.6121 13.8213 20.1712 17.4663C22.8918 11.4769 22.793 6.34007 21.5 3.29731C20.4985 0.940659 15.3682 -2.76404 8.72216 3.29731C2.07611 9.35866 0.159024 30.3242 0 40Z" fill="url(#paint0_linear_2869_2981)"/>
<path d="M69.2394 11.7989V29.2678H74.0401V18.7819C74.0401 18.1374 74.1641 17.5764 74.412 17.0987C74.6599 16.6135 74.9943 16.2382 75.415 15.9728C75.8432 15.6998 76.324 15.5634 76.8575 15.5634C77.6463 15.5634 78.2812 15.8174 78.762 16.3254C79.2503 16.8334 79.4945 17.5157 79.4945 18.3725V29.2678H84.1488V18.5999C84.1488 17.6901 84.3929 16.9585 84.8813 16.405C85.3696 15.8439 86.0495 15.5634 86.921 15.5634C87.6874 15.5634 88.3259 15.806 88.8368 16.2912C89.3477 16.7765 89.6031 17.5044 89.6031 18.4748V29.2678H94.3926V17.5195C94.3926 15.624 93.8855 14.1607 92.8713 13.1296C91.8645 12.0908 90.5535 11.5715 88.9383 11.5715C87.6686 11.5715 86.5679 11.8747 85.6363 12.4813C84.7122 13.0803 84.0736 13.8802 83.7205 14.881H83.5402C83.2622 13.865 82.7063 13.0613 81.8724 12.4699C81.0384 11.871 80.0279 11.5715 78.8409 11.5715C77.6689 11.5715 76.6621 11.8672 75.8207 12.4586C74.9792 13.05 74.3782 13.8574 74.0176 14.881H73.8147V11.7989H69.2394Z" fill="url(#paint1_linear_2869_2981)"/>
<path d="M60.5986 11.7989V21.8299C60.6061 22.6108 60.452 23.2666 60.1365 23.7974C59.8285 24.3281 59.4228 24.73 58.9194 25.0029C58.416 25.2683 57.8751 25.401 57.2966 25.401C56.3876 25.401 55.6626 25.1015 55.1216 24.5025C54.5807 23.9035 54.3065 23.0885 54.299 22.0573V11.7989H49.4982V22.9217C49.5057 24.2864 49.7536 25.4578 50.242 26.4359C50.7378 27.414 51.4253 28.1684 52.3043 28.6991C53.1833 29.2299 54.2013 29.4952 55.3583 29.4952C56.658 29.4952 57.7587 29.1844 58.6602 28.5626C59.5693 27.9409 60.2192 27.1183 60.6098 26.0947H60.7901V29.2678H65.3993V11.7989H60.5986Z" fill="url(#paint2_linear_2869_2981)"/>
<path d="M46.9504 25.5C46.9504 27.5 43.9504 30 41.6061 28.9002C40.7271 28.3695 40.0396 27.6151 39.5438 26.637C39.0554 25.6589 38.8075 24.4875 38.8 23.1227V6H43.6008V22.2584C43.6083 23.2896 43.8825 24.1046 44.4234 24.7036C44.9644 25.3026 46.0413 25.5 46.9504 25.5Z" fill="url(#paint3_linear_2869_2981)"/>
<path d="M98.1855 29.2678V12.1871C98.3296 12.0659 98.5121 11.9461 98.699 11.8234C99.4562 11.3264 101 11 98.9339 9.89537C98.3791 9.53204 98.2406 8.85136 98.2406 8.19003C98.2406 7.53613 98.4717 6.97512 98.9339 6.50699C99.403 6.03142 99.9653 5.79364 100.621 5.79364C101.276 5.79364 101.835 6.03142 102.297 6.50699C102.766 6.97512 103.001 7.53613 103.001 8.19003C103.001 8.85136 102.766 9.41981 102.297 9.89537C99.9309 11 101.763 11.3313 102.512 11.8419C102.683 11.9589 102.851 12.073 102.986 12.1871V29.2678H98.1855Z" fill="url(#paint4_linear_2869_2981)"/>
<defs>
<linearGradient id="paint0_linear_2869_2981" x1="51.5004" y1="0" x2="51.5004" y2="40" gradientUnits="userSpaceOnUse">
<stop stop-color="#9C31EA"/>
<stop offset="1" stop-color="#FF03B1"/>
</linearGradient>
<linearGradient id="paint1_linear_2869_2981" x1="51.5004" y1="0" x2="51.5004" y2="40" gradientUnits="userSpaceOnUse">
<stop stop-color="#9C31EA"/>
<stop offset="1" stop-color="#FF03B1"/>
</linearGradient>
<linearGradient id="paint2_linear_2869_2981" x1="51.5004" y1="0" x2="51.5004" y2="40" gradientUnits="userSpaceOnUse">
<stop stop-color="#9C31EA"/>
<stop offset="1" stop-color="#FF03B1"/>
</linearGradient>
<linearGradient id="paint3_linear_2869_2981" x1="51.5004" y1="0" x2="51.5004" y2="40" gradientUnits="userSpaceOnUse">
<stop stop-color="#9C31EA"/>
<stop offset="1" stop-color="#FF03B1"/>
</linearGradient>
<linearGradient id="paint4_linear_2869_2981" x1="51.5004" y1="0" x2="51.5004" y2="40" gradientUnits="userSpaceOnUse">
<stop stop-color="#9C31EA"/>
<stop offset="1" stop-color="#FF03B1"/>
</linearGradient>
</defs>
</svg>
