<svg viewBox="0 0 32 32" fill="none" xmlns="http://www.w3.org/2000/svg">
<path d="M19.4306 15.053C20.0212 15.053 20.5 14.5742 20.5 13.9835C20.5 13.3929 20.0212 12.9141 19.4306 12.9141C18.8399 12.9141 18.3611 13.3929 18.3611 13.9835C18.3611 14.5742 18.8399 15.053 19.4306 15.053Z" fill="#465C8D"/>
<path d="M13.2003 15.053C13.7909 15.053 14.2698 14.5742 14.2698 13.9835C14.2698 13.3929 13.7909 12.9141 13.2003 12.9141C12.6097 12.9141 12.1309 13.3929 12.1309 13.9835C12.1309 14.5742 12.6097 15.053 13.2003 15.053Z" fill="#465C8D"/>
<path d="M13.0325 18.1698C13.3955 19.9065 14.9751 21.1035 16.6627 20.9955C18.2031 20.8974 19.5276 19.7397 19.8514 18.1698M25.3851 16.1586C25.3851 21.1384 21.3482 25.1753 16.3684 25.1753C11.3886 25.1753 7.35164 21.1384 7.35164 16.1586C7.35164 11.1788 11.3886 7.14183 16.3684 7.14183C21.3482 7.14183 25.3851 11.1788 25.3851 16.1586ZM8.06927 24.6338C7.91228 24.6338 7.09793 24.6828 6.47981 25.3598C5.93037 25.9485 5.89112 26.6451 5.88131 26.8217C5.88131 26.6746 5.81263 25.7523 5.04734 25.1342C4.50771 24.6927 3.90921 24.6436 3.69336 24.6338C3.91902 24.5945 4.64507 24.4572 5.22395 23.8096C5.71452 23.27 5.84207 22.6813 5.8715 22.4458C5.88131 22.6519 5.94018 23.27 6.41113 23.8293C7.03906 24.5651 7.90247 24.624 8.05945 24.6338H8.06927ZM29.0204 7.57077C28.8635 7.57077 28.0491 7.61982 27.431 8.29681C26.8815 8.8855 26.8423 9.58211 26.8325 9.75872C26.8325 9.61155 26.7638 8.68927 25.9985 8.07115C25.4589 7.62963 24.8604 7.58058 24.6445 7.57077C24.8702 7.53152 25.5962 7.39416 26.1751 6.7466C26.6657 6.20697 26.7932 5.61829 26.8227 5.38281C26.8325 5.58885 26.8914 6.20697 27.3623 6.76623C27.9902 7.50209 28.8537 7.56095 29.0106 7.57077H29.0204Z" stroke="#465C8D" stroke-width="1.5" stroke-linecap="round" stroke-linejoin="round"/>
</svg>
