<svg width="24" height="24" viewBox="0 0 24 24" fill="none" xmlns="http://www.w3.org/2000/svg">
<rect width="24" height="24" rx="12" fill="url(#paint0_linear_2942_1510)" fill-opacity="0.2"/>
<path d="M15.7133 8.21248C15.8894 8.04484 16.1237 7.95217 16.3668 7.95401C16.6099 7.95585 16.8428 8.05206 17.0164 8.22234C17.1899 8.39263 17.2905 8.62366 17.2969 8.8667C17.3033 9.10974 17.2151 9.34577 17.0508 9.52498L12.0633 15.7625C11.9775 15.8549 11.874 15.929 11.759 15.9804C11.6439 16.0319 11.5196 16.0596 11.3936 16.062C11.2676 16.0643 11.1424 16.0412 11.0255 15.994C10.9086 15.9469 10.8024 15.8766 10.7133 15.7875L7.40581 12.48C7.3137 12.3942 7.23982 12.2907 7.18858 12.1757C7.13734 12.0607 7.10979 11.9365 7.10757 11.8106C7.10535 11.6848 7.1285 11.5597 7.17565 11.443C7.22281 11.3263 7.29299 11.2202 7.38201 11.1312C7.47103 11.0422 7.57708 10.972 7.69381 10.9248C7.81055 10.8777 7.93558 10.8545 8.06146 10.8567C8.18734 10.859 8.31148 10.8865 8.42648 10.9378C8.54148 10.989 8.64498 11.0629 8.73081 11.155L11.3483 13.7712L15.6896 8.23998L15.7133 8.21248Z" fill="#BE44D2"/>
<defs>
<linearGradient id="paint0_linear_2942_1510" x1="12" y1="0" x2="12" y2="24" gradientUnits="userSpaceOnUse">
<stop stop-color="#852AC8"/>
<stop offset="1" stop-color="#DA0397"/>
</linearGradient>
</defs>
</svg>
